<svg width="20" height="20" viewBox="0 0 20 20" fill="none" xmlns="http://www.w3.org/2000/svg">
<path fill-rule="evenodd" clip-rule="evenodd" d="M8.5 1.99999C6.77609 1.99999 5.12279 2.68481 3.90381 3.9038C2.68482 5.12279 2 6.77609 2 8.49999C2 10.2239 2.68482 11.8772 3.90381 13.0962C5.12279 14.3152 6.77609 15 8.5 15C10.2239 15 11.8772 14.3152 13.0962 13.0962C14.3152 11.8772 15 10.2239 15 8.49999C15 6.77609 14.3152 5.12279 13.0962 3.9038C11.8772 2.68481 10.2239 1.99999 8.5 1.99999ZM1.91687e-08 8.49999C0.000115492 7.14459 0.324364 5.80886 0.945694 4.60425C1.56702 3.39964 2.46742 2.36109 3.57175 1.57523C4.67609 0.789373 5.95235 0.279004 7.29404 0.0867024C8.63574 -0.105599 10.004 0.0257435 11.2846 0.469772C12.5652 0.913801 13.7211 1.65764 14.6557 2.63923C15.5904 3.62082 16.2768 4.8117 16.6576 6.11251C17.0384 7.41332 17.1026 8.78634 16.8449 10.117C16.5872 11.4477 16.015 12.6974 15.176 13.762L18.828 17.414C19.0102 17.6026 19.111 17.8552 19.1087 18.1174C19.1064 18.3796 19.0012 18.6304 18.8158 18.8158C18.6304 19.0012 18.3796 19.1064 18.1174 19.1087C17.8552 19.1109 17.6026 19.0102 17.414 18.828L13.762 15.176C12.5086 16.164 11.0024 16.7792 9.41573 16.9511C7.82905 17.123 6.22602 16.8448 4.79009 16.1482C3.35417 15.4516 2.14336 14.3649 1.29623 13.0123C0.449106 11.6597 -0.000107143 10.096 1.91687e-08 8.49999ZM7.5 4.99999C7.5 4.73478 7.60536 4.48042 7.79289 4.29289C7.98043 4.10535 8.23478 3.99999 8.5 3.99999C9.69347 3.99999 10.8381 4.4741 11.682 5.31801C12.5259 6.16193 13 7.30652 13 8.49999C13 8.76521 12.8946 9.01956 12.7071 9.2071C12.5196 9.39464 12.2652 9.49999 12 9.49999C11.7348 9.49999 11.4804 9.39464 11.2929 9.2071C11.1054 9.01956 11 8.76521 11 8.49999C11 7.83695 10.7366 7.20107 10.2678 6.73223C9.79893 6.26339 9.16304 5.99999 8.5 5.99999C8.23478 5.99999 7.98043 5.89464 7.79289 5.7071C7.60536 5.51956 7.5 5.26521 7.5 4.99999Z" fill="#464545"/>
</svg>
